<svg width="102" height="24" viewBox="0 0 102 24" fill="none" xmlns="http://www.w3.org/2000/svg">
<path d="M56.0406 6.2728C57.4379 6.2728 58.5743 6.73576 59.4497 7.66169C60.3252 8.58762 60.7629 10.128 60.7629 12.2829V19.4294H57.2023V12.1566C57.2023 10.1869 56.4531 9.2021 54.9548 9.2021C54.1804 9.2021 53.5575 9.47987 53.0861 10.0354C52.6147 10.5741 52.379 11.3317 52.379 12.3082V19.4294H48.8184V12.1566C48.8184 10.1869 48.0608 9.2021 46.5457 9.2021C45.7713 9.2021 45.1484 9.48829 44.677 10.0607C44.2225 10.6162 43.9952 11.3738 43.9952 12.3334V19.4294H40.4346V12.9268V9.95563H38.3999V6.66674L43.5406 6.42432L43.8689 8.04048C44.3066 7.48492 44.8285 7.05563 45.4346 6.7526C46.0406 6.44957 46.7982 6.28964 47.7073 6.2728C49.5592 6.2728 50.847 7.00513 51.5709 8.46977C52.0423 7.7627 52.6568 7.22398 53.4144 6.85361C54.1888 6.4664 55.0642 6.2728 56.0406 6.2728Z" fill="#2A2928"/>
<path d="M68.5799 19.5556C67.2163 19.5556 66.0126 19.2863 64.9688 18.7476C63.9419 18.192 63.1422 17.4092 62.5698 16.3991C62.0142 15.389 61.7365 14.2273 61.7365 12.9142C61.7365 11.6011 62.0142 10.4395 62.5698 9.42937C63.1422 8.41927 63.9419 7.64486 64.9688 7.10614C66.0126 6.55058 67.2163 6.2728 68.5799 6.2728C69.9435 6.2728 71.1388 6.55058 72.1658 7.10614C73.2095 7.64486 74.0092 8.41927 74.5648 9.42937C75.1371 10.4395 75.4233 11.6011 75.4233 12.9142C75.4233 14.2442 75.1371 15.4142 74.5648 16.4243C74.0092 17.4176 73.2095 18.192 72.1658 18.7476C71.1388 19.2863 69.9435 19.5556 68.5799 19.5556ZM68.5799 16.6516C69.5732 16.6516 70.356 16.3065 70.9284 15.6162C71.5176 14.926 71.8122 14.0253 71.8122 12.9142C71.8122 11.8031 71.5176 10.9024 70.9284 10.2122C70.356 9.52196 69.5732 9.17684 68.5799 9.17684C67.6035 9.17684 66.8206 9.52196 66.2314 10.2122C65.659 10.9024 65.3728 11.8031 65.3728 12.9142C65.3728 14.0253 65.659 14.926 66.2314 15.6162C66.8206 16.3065 67.6035 16.6516 68.5799 16.6516Z" fill="#2A2928"/>
<path d="M79.431 15.0859C79.4815 15.6583 79.7593 16.1213 80.2643 16.4748C80.7694 16.8284 81.4175 17.0051 82.2088 17.0051C82.9664 17.0051 83.564 16.8873 84.0017 16.6516C84.4394 16.3991 84.6583 16.0455 84.6583 15.591C84.6583 15.2543 84.5573 15.0018 84.3552 14.8334C84.1532 14.6651 83.867 14.5472 83.4967 14.4799C83.1263 14.3957 82.5202 14.3031 81.6785 14.2021C80.5337 14.0506 79.5825 13.857 78.8249 13.6213C78.0674 13.3856 77.4613 13.0152 77.0068 12.5102C76.5522 12.0051 76.3249 11.3317 76.3249 10.49C76.3249 9.64822 76.5522 8.90748 77.0068 8.26775C77.4781 7.61119 78.1347 7.10614 78.9765 6.7526C79.8182 6.39906 80.7862 6.2223 81.8805 6.2223C83.6482 6.23913 85.0707 6.61792 86.1482 7.35866C87.2424 8.0994 87.8317 9.12634 87.9158 10.4395H84.532C84.4815 9.95125 84.2206 9.55563 83.7492 9.2526C83.2946 8.93274 82.7054 8.7728 81.9815 8.7728C81.3081 8.7728 80.761 8.89906 80.3401 9.15159C79.936 9.40412 79.734 9.74082 79.734 10.1617C79.734 10.4647 79.8435 10.692 80.0623 10.8435C80.2812 10.995 80.5674 11.1045 80.9209 11.1718C81.2744 11.2391 81.8637 11.3149 82.6886 11.3991C84.4394 11.6011 85.7778 11.9799 86.7037 12.5354C87.6465 13.0741 88.1179 14.0085 88.1179 15.3385C88.1179 16.1802 87.8653 16.9209 87.3603 17.5607C86.8721 18.2004 86.1818 18.697 85.2896 19.0506C84.4142 19.3873 83.3956 19.5556 82.234 19.5556C80.4327 19.5556 78.968 19.16 77.8401 18.3688C76.7121 17.5607 76.1145 16.4664 76.0472 15.0859H79.431Z" fill="#2A2928"/>
<path d="M92.0642 15.0859C92.1147 15.6583 92.3924 16.1213 92.8975 16.4748C93.4025 16.8284 94.0507 17.0051 94.8419 17.0051C95.5995 17.0051 96.1972 16.8873 96.6349 16.6516C97.0726 16.3991 97.2914 16.0455 97.2914 15.591C97.2914 15.2543 97.1904 15.0018 96.9884 14.8334C96.7864 14.6651 96.5002 14.5472 96.1298 14.4799C95.7594 14.3957 95.1534 14.3031 94.3116 14.2021C93.1669 14.0506 92.2157 13.857 91.4581 13.6213C90.7005 13.3856 90.0945 13.0152 89.6399 12.5102C89.1854 12.0051 88.9581 11.3317 88.9581 10.49C88.9581 9.64822 89.1854 8.90748 89.6399 8.26775C90.1113 7.61119 90.7679 7.10614 91.6096 6.7526C92.4514 6.39906 93.4194 6.2223 94.5137 6.2223C96.2813 6.23913 97.7039 6.61792 98.7813 7.35866C99.8756 8.0994 100.465 9.12634 100.549 10.4395H97.1652C97.1147 9.95125 96.8537 9.55563 96.3823 9.2526C95.9278 8.93274 95.3386 8.7728 94.6147 8.7728C93.9413 8.7728 93.3941 8.89906 92.9733 9.15159C92.5692 9.40412 92.3672 9.74082 92.3672 10.1617C92.3672 10.4647 92.4766 10.692 92.6955 10.8435C92.9143 10.995 93.2005 11.1045 93.5541 11.1718C93.9076 11.2391 94.4968 11.3149 95.3217 11.3991C97.0726 11.6011 98.411 11.9799 99.3369 12.5354C100.28 13.0741 100.751 14.0085 100.751 15.3385C100.751 16.1802 100.499 16.9209 99.9935 17.5607C99.5052 18.2004 98.815 18.697 97.9228 19.0506C97.0473 19.3873 96.0288 19.5556 94.8672 19.5556C93.0658 19.5556 91.6012 19.16 90.4733 18.3688C89.3453 17.5607 88.7477 16.4664 88.6803 15.0859H92.0642Z" fill="#2A2928"/>
<path d="M18.4892 23.6446H17.5115V19.8223C15.7337 22.2223 12.9781 23.6446 9.95591 23.6446H8.97814V19.8223C7.20036 22.2223 4.4448 23.6446 1.42258 23.6446H0.533691V14.3112C0.533691 9.06678 4.80036 4.889 9.95591 4.889H10.9337V6.489C12.7115 4.089 15.467 2.66678 18.4892 2.66678H19.467V4.26678C21.2448 1.86678 24.0004 0.444557 27.0226 0.444557H28.0004V14.2223C27.9115 19.3779 23.7337 23.6446 18.4892 23.6446ZM9.06702 6.75567C5.33369 7.20011 2.40036 10.4001 2.40036 14.3112V21.689C6.13369 21.2446 8.97814 18.0446 9.06702 14.2223V6.75567ZM17.5115 4.62233C13.7781 5.06678 10.9337 8.26678 10.8448 12.089V21.7779C14.5781 21.3334 17.5115 18.1334 17.5115 14.2223V4.62233ZM26.0448 2.40011C22.3115 2.84456 19.3781 6.04456 19.3781 9.95567V21.7779C23.1115 21.3334 26.0448 18.1334 26.0448 14.2223V2.40011Z" fill="#2A2928"/>
</svg>
